# This file uses centimeters as units for non-parametric coordinates.

mtllib Dice_Asset.mtl
g default
v -1.461003 -1.406806 1.332772
v -1.406806 -1.461003 1.332772
v -1.332772 -1.480841 1.332772
v -1.332772 -1.461003 1.406806
v -1.332772 -1.406806 1.461003
v -1.332772 -1.332772 1.480841
v -1.406806 -1.332772 1.461003
v -1.461003 -1.332772 1.406806
v -1.480841 -1.332772 1.332772
v 1.406806 -1.461003 1.332772
v 1.461003 -1.406806 1.332772
v 1.480841 -1.332772 1.332772
v 1.461003 -1.332772 1.406806
v 1.406806 -1.332772 1.461003
v 1.332772 -1.332772 1.480841
v 1.332772 -1.406806 1.461003
v 1.332772 -1.461003 1.406806
v 1.332772 -1.480841 1.332772
v -1.406806 1.461003 1.332772
v -1.461003 1.406806 1.332772
v -1.480841 1.332772 1.332772
v -1.461003 1.332772 1.406806
v -1.406806 1.332772 1.461003
v -1.332772 1.332772 1.480841
v -1.332772 1.406806 1.461003
v -1.332772 1.461003 1.406806
v -1.332772 1.480841 1.332772
v 1.461003 1.406806 1.332772
v 1.406806 1.461003 1.332772
v 1.332772 1.480841 1.332772
v 1.332772 1.461003 1.406806
v 1.332772 1.406806 1.461003
v 1.332772 1.332772 1.480841
v 1.406806 1.332772 1.461003
v 1.461003 1.332772 1.406806
v 1.480841 1.332772 1.332772
v -1.406806 1.332772 -1.461003
v -1.461003 1.332772 -1.406806
v -1.480841 1.332772 -1.332772
v -1.461003 1.406806 -1.332772
v -1.406806 1.461003 -1.332772
v -1.332772 1.480841 -1.332772
v -1.332772 1.461003 -1.406806
v -1.332772 1.406806 -1.461003
v -1.332772 1.332772 -1.480841
v 1.461003 1.332772 -1.406806
v 1.406806 1.332772 -1.461003
v 1.332772 1.332772 -1.480841
v 1.332772 1.406806 -1.461003
v 1.332772 1.461003 -1.406806
v 1.332772 1.480841 -1.332772
v 1.406806 1.461003 -1.332772
v 1.461003 1.406806 -1.332772
v 1.480841 1.332772 -1.332772
v -1.406806 -1.461003 -1.332772
v -1.461003 -1.406806 -1.332772
v -1.480841 -1.332772 -1.332772
v -1.461003 -1.332772 -1.406806
v -1.406806 -1.332772 -1.461003
v -1.332772 -1.332772 -1.480841
v -1.332772 -1.406806 -1.461003
v -1.332772 -1.461003 -1.406806
v -1.332772 -1.480841 -1.332772
v 1.461003 -1.406806 -1.332772
v 1.406806 -1.461003 -1.332772
v 1.332772 -1.480841 -1.332772
v 1.332772 -1.461003 -1.406806
v 1.332772 -1.406806 -1.461003
v 1.332772 -1.332772 -1.480841
v 1.406806 -1.332772 -1.461003
v 1.461003 -1.332772 -1.406806
v 1.480841 -1.332772 -1.332772
v -1.449868 -1.396750 1.396750
v -1.396750 -1.449868 1.396750
v -1.396750 -1.396750 1.449868
v 1.396750 -1.449868 1.396750
v 1.449868 -1.396750 1.396750
v 1.396750 -1.396750 1.449868
v -1.396750 1.449868 1.396750
v -1.449868 1.396750 1.396750
v -1.396750 1.396750 1.449868
v 1.449868 1.396750 1.396750
v 1.396750 1.449868 1.396750
v 1.396750 1.396750 1.449868
v -1.396750 1.396750 -1.449868
v -1.449868 1.396750 -1.396750
v -1.396750 1.449868 -1.396750
v 1.449868 1.396750 -1.396750
v 1.396750 1.396750 -1.449868
v 1.396750 1.449868 -1.396750
v -1.396750 -1.449868 -1.396750
v -1.449868 -1.396750 -1.396750
v -1.396750 -1.396750 -1.449868
v 1.449868 -1.396750 -1.396750
v 1.396750 -1.449868 -1.396750
v 1.396750 -1.396750 -1.449868
vt 0.318814 0.021320
vt 0.318814 0.029339
vt 0.030092 0.029339
vt 0.030092 0.021320
vt 0.326833 0.029339
vt 0.325744 0.022409
vt 0.318814 0.318060
vt 0.030092 0.318060
vt 0.022073 0.029339
vt 0.023162 0.022409
vt 0.318814 0.015449
vt 0.030092 0.015449
vt 0.326833 0.318060
vt 0.325744 0.016655
vt 0.331497 0.022409
vt 0.332703 0.029339
vt 0.318814 0.326079
vt 0.030092 0.326079
vt 0.022073 0.318060
vt 0.016203 0.029339
vt 0.017409 0.022409
vt 0.023162 0.016655
vt 0.332703 0.318060
vt 0.325744 0.324990
vt 0.318814 0.331950
vt 0.030092 0.331950
vt 0.023162 0.324990
vt 0.016203 0.318060
vt 0.331497 0.324990
vt 0.325744 0.330744
vt 0.023162 0.330744
vt 0.017409 0.324990
vt 0.364680 0.322013
vt 0.356661 0.322013
vt 0.356661 0.033292
vt 0.364680 0.033292
vt 0.364680 0.330032
vt 0.357750 0.328943
vt 0.350790 0.322013
vt 0.350790 0.033292
vt 0.364680 0.025272
vt 0.357750 0.026362
vt 0.653401 0.033292
vt 0.653401 0.322013
vt 0.653401 0.330032
vt 0.364680 0.335903
vt 0.357750 0.334697
vt 0.351997 0.328943
vt 0.351997 0.026362
vt 0.653401 0.025272
vt 0.357750 0.020608
vt 0.364680 0.019402
vt 0.661420 0.322013
vt 0.661420 0.033292
vt 0.660331 0.328943
vt 0.653401 0.335903
vt 0.660331 0.026362
vt 0.653401 0.019402
vt 0.667291 0.322013
vt 0.667291 0.033292
vt 0.666084 0.328943
vt 0.660331 0.334697
vt 0.660331 0.020608
vt 0.666084 0.026362
vt 0.370470 0.970469
vt 0.362451 0.970469
vt 0.362451 0.681747
vt 0.370470 0.681747
vt 0.370470 0.978488
vt 0.363540 0.977398
vt 0.370470 0.673728
vt 0.363540 0.674817
vt 0.659191 0.681747
vt 0.659191 0.970469
vt 0.659191 0.978488
vt 0.370470 0.984358
vt 0.363540 0.983152
vt 0.659191 0.673728
vt 0.363540 0.669064
vt 0.370470 0.667857
vt 0.667211 0.970469
vt 0.667211 0.681747
vt 0.666122 0.977398
vt 0.659191 0.984358
vt 0.659191 0.667857
vt 0.666122 0.674817
vt 0.666122 0.983152
vt 0.666122 0.669064
vt 0.022570 0.681673
vt 0.030589 0.681673
vt 0.030589 0.970394
vt 0.022570 0.970394
vt 0.030589 0.673654
vt 0.023659 0.674743
vt 0.319310 0.681673
vt 0.319310 0.970394
vt 0.030589 0.978413
vt 0.023659 0.977324
vt 0.319310 0.673654
vt 0.023659 0.668989
vt 0.030589 0.667783
vt 0.327329 0.681673
vt 0.327329 0.970394
vt 0.319310 0.978413
vt 0.030589 0.984284
vt 0.023659 0.983078
vt 0.319310 0.667783
vt 0.326240 0.674743
vt 0.326240 0.977324
vt 0.319310 0.984284
vt 0.326240 0.668989
vt 0.326240 0.983078
vt 0.026051 0.355564
vt 0.026051 0.347545
vt 0.314773 0.347545
vt 0.314773 0.355564
vt 0.018032 0.355564
vt 0.019121 0.348634
vt 0.322792 0.355564
vt 0.321703 0.348634
vt 0.314773 0.644286
vt 0.026051 0.644286
vt 0.018032 0.644286
vt 0.322792 0.644286
vt 0.026051 0.652305
vt 0.314773 0.652305
vt 0.019121 0.651216
vt 0.321703 0.651216
vt 0.360388 0.355565
vt 0.368408 0.355565
vt 0.368408 0.644286
vt 0.360388 0.644286
vt 0.368408 0.347545
vt 0.361478 0.348635
vt 0.657129 0.355565
vt 0.657129 0.644286
vt 0.368408 0.652306
vt 0.361478 0.651216
vt 0.657129 0.347545
vt 0.665148 0.355565
vt 0.665148 0.644286
vt 0.657129 0.652306
vt 0.664059 0.348635
vt 0.664059 0.651216
vn -0.007192 -0.999948 0.007192
vn -0.499912 -0.866059 0.005447
vn -0.499912 -0.866059 -0.005447
vn -0.007192 -0.999948 -0.007192
vn -0.866059 -0.499913 0.005447
vn -0.866059 -0.499913 -0.005447
vn -0.999948 -0.007192 0.007192
vn -0.999948 -0.007192 -0.007192
vn -0.007192 -0.007192 0.999948
vn -0.005447 -0.499912 0.866059
vn 0.005447 -0.499912 0.866059
vn 0.007192 -0.007192 0.999948
vn -0.005447 -0.866059 0.499913
vn 0.005447 -0.866059 0.499913
vn 0.007192 -0.999948 0.007192
vn -0.866059 -0.005447 0.499912
vn -0.866059 0.005447 0.499912
vn -0.999948 0.007192 0.007192
vn -0.499913 -0.005447 0.866059
vn -0.499913 0.005447 0.866059
vn -0.007192 0.007192 0.999948
vn 0.999948 -0.007192 0.007192
vn 0.866059 -0.499913 0.005447
vn 0.866059 -0.499913 -0.005447
vn 0.999948 -0.007192 -0.007192
vn 0.499912 -0.866059 0.005447
vn 0.499912 -0.866059 -0.005447
vn 0.007192 -0.999948 -0.007192
vn 0.499913 -0.005447 0.866059
vn 0.499913 0.005447 0.866059
vn 0.007192 0.007192 0.999948
vn 0.866059 -0.005447 0.499912
vn 0.866059 0.005447 0.499912
vn 0.999948 0.007192 0.007192
vn -0.866059 0.499913 0.005447
vn -0.866059 0.499913 -0.005447
vn -0.999948 0.007192 -0.007192
vn -0.499912 0.866059 0.005447
vn -0.499912 0.866059 -0.005447
vn -0.007192 0.999948 0.007192
vn -0.007192 0.999948 -0.007192
vn -0.005447 0.866059 0.499913
vn 0.005447 0.866059 0.499913
vn 0.007192 0.999948 0.007192
vn -0.005447 0.499912 0.866059
vn 0.005447 0.499912 0.866059
vn 0.499912 0.866059 0.005447
vn 0.499912 0.866059 -0.005447
vn 0.007192 0.999948 -0.007192
vn 0.866059 0.499913 0.005447
vn 0.866059 0.499913 -0.005447
vn 0.999948 0.007192 -0.007192
vn -0.866059 0.005447 -0.499912
vn -0.866059 -0.005447 -0.499912
vn -0.499913 0.005447 -0.866059
vn -0.499913 -0.005447 -0.866059
vn -0.007192 0.007192 -0.999948
vn -0.007192 -0.007192 -0.999948
vn -0.005447 0.499912 -0.866059
vn 0.005447 0.499912 -0.866059
vn 0.007192 0.007192 -0.999948
vn -0.005447 0.866059 -0.499913
vn 0.005447 0.866059 -0.499913
vn 0.499913 0.005447 -0.866059
vn 0.499913 -0.005447 -0.866059
vn 0.007192 -0.007192 -0.999948
vn 0.866059 0.005447 -0.499912
vn 0.866059 -0.005447 -0.499912
vn -0.005447 -0.866059 -0.499913
vn 0.005447 -0.866059 -0.499913
vn -0.005447 -0.499912 -0.866059
vn 0.005447 -0.499912 -0.866059
vn -0.809119 -0.415528 0.415528
vn -0.415528 -0.809119 0.415529
vn -0.415528 -0.415528 0.809119
vn 0.415527 -0.809119 0.415528
vn 0.809119 -0.415528 0.415527
vn 0.415528 -0.415527 0.809119
vn -0.415527 0.809119 0.415528
vn -0.809119 0.415528 0.415527
vn -0.415528 0.415527 0.809119
vn 0.809119 0.415528 0.415528
vn 0.415528 0.809119 0.415529
vn 0.415528 0.415528 0.809119
vn -0.415528 0.415528 -0.809119
vn -0.809119 0.415528 -0.415528
vn -0.415528 0.809119 -0.415529
vn 0.809119 0.415528 -0.415527
vn 0.415528 0.415527 -0.809119
vn 0.415527 0.809119 -0.415528
vn -0.415527 -0.809119 -0.415528
vn -0.809119 -0.415528 -0.415527
vn -0.415528 -0.415527 -0.809119
vn 0.809119 -0.415528 -0.415528
vn 0.415528 -0.809119 -0.415529
vn 0.415528 -0.415528 -0.809119
s 1
g Dice
usemtl initialShadingGroup
f 3/65/1 2/66/2 55/67/3 63/68/4
f 2/11/2 1/1/5 56/4/6 55/12/3
f 1/1/5 9/2/7 57/3/8 56/4/6
f 6/113/9 5/114/10 16/115/11 15/116/12
f 5/76/10 4/69/13 17/75/14 16/84/11
f 4/69/13 3/65/1 18/74/15 17/75/14
f 9/2/7 8/5/16 22/13/17 21/7/18
f 8/5/16 7/16/19 23/23/20 22/13/17
f 7/117/19 6/113/9 24/122/21 23/123/20
f 12/33/22 11/34/23 64/35/24 72/36/25
f 11/34/23 10/39/26 65/40/27 64/35/24
f 10/81/26 18/74/15 66/73/28 65/82/27
f 15/116/12 14/119/29 34/124/30 33/121/31
f 14/46/29 13/37/32 35/45/33 34/56/30
f 13/37/32 12/33/22 36/44/34 35/45/33
f 21/7/18 20/17/35 40/18/36 39/8/37
f 20/17/35 19/25/38 41/26/39 40/18/36
f 19/89/38 27/90/40 42/91/41 41/92/39
f 27/90/40 26/93/42 31/99/43 30/95/44
f 26/93/42 25/101/45 32/107/46 31/99/43
f 25/125/45 24/122/21 33/121/31 32/126/46
f 30/95/44 29/102/47 52/103/48 51/96/49
f 29/59/47 28/53/50 53/54/51 52/60/48
f 28/53/50 36/44/34 54/43/52 53/54/51
f 39/8/37 38/19/53 58/9/54 57/3/8
f 38/19/53 37/28/55 59/20/56 58/9/54
f 37/129/55 45/130/57 60/131/58 59/132/56
f 45/130/57 44/133/59 49/139/60 48/135/61
f 44/105/59 43/97/62 50/104/63 49/110/60
f 43/97/62 42/91/41 51/96/49 50/104/63
f 48/135/61 47/140/64 70/141/65 69/136/66
f 47/58/64 46/50/67 71/41/68 70/52/65
f 46/50/67 54/43/52 72/36/25 71/41/68
f 63/68/4 62/71/69 67/78/70 66/73/28
f 62/71/69 61/80/71 68/85/72 67/78/70
f 61/137/71 60/131/58 69/136/66 68/142/72
f 6/113/9 15/116/12 33/121/31 24/122/21
f 27/90/40 30/95/44 51/96/49 42/91/41
f 45/130/57 48/135/61 69/136/66 60/131/58
f 63/68/4 66/73/28 18/74/15 3/65/1
f 12/33/22 72/36/25 54/43/52 36/44/34
f 57/3/8 9/2/7 21/7/18 39/8/37
f 8/5/16 9/2/7 1/1/5 73/6/73
f 73/6/73 1/1/5 2/11/2 74/14/74
f 2/66/2 3/65/1 4/69/13 74/70/74
f 74/70/74 4/69/13 5/76/10 75/77/75
f 5/114/10 6/113/9 7/117/19 75/118/75
f 75/15/75 7/16/19 8/5/16 73/6/73
f 73/6/73 74/14/74 75/15/75
f 17/75/14 18/74/15 10/81/26 76/83/76
f 76/48/76 10/39/26 11/34/23 77/38/77
f 11/34/23 12/33/22 13/37/32 77/38/77
f 77/38/77 13/37/32 14/46/29 78/47/78
f 14/119/29 15/116/12 16/115/11 78/120/78
f 78/87/78 16/84/11 17/75/14 76/83/76
f 76/48/76 77/38/77 78/47/78
f 26/93/42 27/90/40 19/89/38 79/94/79
f 79/30/79 19/25/38 20/17/35 80/24/80
f 20/17/35 21/7/18 22/13/17 80/24/80
f 80/24/80 22/13/17 23/23/20 81/29/81
f 23/123/20 24/122/21 25/125/45 81/127/81
f 81/100/81 25/101/45 26/93/42 79/94/79
f 79/30/79 80/24/80 81/29/81
f 35/45/33 36/44/34 28/53/50 82/55/82
f 82/55/82 28/53/50 29/59/47 83/61/83
f 29/102/47 30/95/44 31/99/43 83/108/83
f 83/108/83 31/99/43 32/107/46 84/111/84
f 32/126/46 33/121/31 34/124/30 84/128/84
f 84/62/84 34/56/30 35/45/33 82/55/82
f 82/55/82 83/61/83 84/62/84
f 44/133/59 45/130/57 37/129/55 85/134/85
f 85/32/85 37/28/55 38/19/53 86/27/86
f 38/19/53 39/8/37 40/18/36 86/27/86
f 86/27/86 40/18/36 41/26/39 87/31/87
f 41/92/39 42/91/41 43/97/62 87/98/87
f 87/98/87 43/97/62 44/105/59 85/106/85
f 85/32/85 86/27/86 87/31/87
f 53/54/51 54/43/52 46/50/67 88/57/88
f 88/57/88 46/50/67 47/58/64 89/63/89
f 47/140/64 48/135/61 49/139/60 89/143/89
f 89/112/89 49/110/60 50/104/63 90/109/90
f 50/104/63 51/96/49 52/103/48 90/109/90
f 90/64/90 52/60/48 53/54/51 88/57/88
f 88/57/88 89/63/89 90/64/90
f 62/71/69 63/68/4 55/67/3 91/72/91
f 91/22/91 55/12/3 56/4/6 92/10/92
f 56/4/6 57/3/8 58/9/54 92/10/92
f 92/10/92 58/9/54 59/20/56 93/21/93
f 59/132/56 60/131/58 61/137/71 93/138/93
f 93/79/93 61/80/71 62/71/69 91/72/91
f 91/22/91 92/10/92 93/21/93
f 71/41/68 72/36/25 64/35/24 94/42/94
f 94/42/94 64/35/24 65/40/27 95/49/95
f 65/82/27 66/73/28 67/78/70 95/86/95
f 95/86/95 67/78/70 68/85/72 96/88/96
f 68/142/72 69/136/66 70/141/65 96/144/96
f 96/51/96 70/52/65 71/41/68 94/42/94
f 94/42/94 95/49/95 96/51/96
